<?xml version="1.0" encoding="utf-8"?>
<!-- Generator: Adobe Illustrator 28.1.0, SVG Export Plug-In . SVG Version: 6.00 Build 0)  -->
<svg version="1.1" id="Layer_1" xmlns="http://www.w3.org/2000/svg" xmlns:xlink="http://www.w3.org/1999/xlink" x="0px" y="0px"
	 viewBox="0 0 561 150" style="enable-background:new 0 0 561 150;" xml:space="preserve">
<style type="text/css">
	.st0{fill:#C27197;}
	.st1{font-family:'TruenoBd';}
	.st2{font-size:52px;}
</style>
<g>
	<g>
		<path class="st0" d="M96.7,101.6c-1.6,2.3-3.4,4.5-5.4,6.5c-7.9,7.9-18.2,12.7-29.3,13.6v-16.4c9.6-1.2,17.9-6.9,22.6-15l-5-2.9
			l-4.9-2.8c-0.7,1.2-1.5,2.3-2.4,3.3c-3.5,3.8-8.5,6.2-14.1,6.2c-10.5,0-19-8.5-19-19s8.5-19,19-19c5.6,0,10.6,2.4,14.1,6.2
			c0.9,1,1.7,2.1,2.4,3.3l4.9-2.8l5-2.9C79.9,51.7,71.7,46,62,44.8V28.3c3.5,0.3,6.9,0.9,10.1,2c0.6,0.2,1.2,0.4,1.8,0.6l0,0
			c0.5,0.2,0.9,0.3,1.3,0.5l0,0c1.3,0.5,2.6,1.1,3.9,1.7l4.3-10.6l0,0c-0.7-0.3-1.5-0.7-2.2-1h-0.1l-0.7-0.3l-1.2-0.5l-0.4-0.2
			c-0.8-0.3-1.6-0.6-2.5-0.9c-4.6-1.5-9.4-2.5-14.4-2.8c-1.3-0.1-2.5-0.1-3.8-0.1s-2.5,0-3.8,0.1C35.8,18.1,19.6,28,9.8,42.7
			c-0.5,0.7-0.9,1.4-1.4,2.2L8.3,45l-1,1.7c-0.4,0.8-0.9,1.6-1.3,2.5C2.2,57,0,65.8,0,75s2.2,18,6,25.8c0.5,0.9,0.9,1.8,1.4,2.7
			l0.7,1.2c0.6,0.9,1.1,1.8,1.7,2.7c9.8,14.6,26,24.6,44.6,25.7c1.3,0.1,2.5,0.1,3.8,0.1s2.6,0,3.8-0.1
			c18.6-1.2,34.8-11.1,44.6-25.8L96.7,101.6z M25.1,41.9C33,34,43.3,29.2,54.4,28.4v16.5c-8.3,1-15.6,5.4-20.5,11.8l-14.3-8.2
			C21.3,46.1,23.1,43.9,25.1,41.9z M15.9,95c-2.9-6.2-4.5-13-4.5-20s1.5-13.8,4.5-20l14.2,8.2c-1.5,3.6-2.4,7.6-2.4,11.8
			s0.8,8.2,2.4,11.8L15.9,95z M54.4,121.6c-11.1-0.9-21.3-5.6-29.3-13.6c-2-2-3.8-4.2-5.4-6.5L34,93.4c4.8,6.4,12.1,10.8,20.5,11.8
			L54.4,121.6L54.4,121.6z"/>
	</g>
	<g>
		<path class="st0" d="M58.2,16.8c-1.3,0-2.5,0-3.8,0.1v-0.1H58.2z"/>
		<path class="st0" d="M62,16.8v0.1c-1.3-0.1-2.5-0.1-3.8-0.1H62z"/>
	</g>
	<g>
		<path class="st0" d="M78.9,20.6c-0.8-0.3-1.6-0.6-2.5-0.9v-0.1L78.9,20.6z"/>
		<path class="st0" d="M74,30.9c-0.6-0.2-1.2-0.4-1.8-0.6l0,0C72.8,30.5,73.4,30.7,74,30.9z"/>
		<path class="st0" d="M79.2,33.1L79.2,33.1c-1.3-0.6-2.6-1.2-3.9-1.7C76.7,31.9,78,32.5,79.2,33.1z"/>
		<path class="st0" d="M83.6,22.4L83.6,22.4c-0.8-0.2-1.5-0.6-2.2-0.9L83.6,22.4z"/>
	</g>
	<g>
		<path class="st0" d="M58.2,133.2h-3.8v-0.1C55.7,133.2,56.9,133.2,58.2,133.2z"/>
		<path class="st0" d="M62,133.1v0.1h-3.8C59.5,133.2,60.8,133.2,62,133.1z"/>
	</g>
	<g>
		<path class="st0" d="M7.4,103.5l-1.5-2.6l0.1-0.1C6.5,101.7,6.9,102.6,7.4,103.5z"/>
		<path class="st0" d="M9.8,107.3l-0.1,0.1l-1.6-2.8C8.7,105.6,9.2,106.5,9.8,107.3z"/>
	</g>
	<g>
		<path class="st0" d="M7.3,46.8c-0.4,0.8-0.9,1.6-1.3,2.5l-0.1-0.1L7.3,46.8z"/>
		<path class="st0" d="M9.8,42.7c-0.5,0.7-0.9,1.4-1.4,2.2L9.8,42.7L9.8,42.7z"/>
	</g>
	<g>
		<path class="st0" d="M149.9,79.2c-0.6,1.2-1.5,2.5-2.6,3.3c-7,5.3-17.8,5.5-25.6,0.5c-6.2-3.9-9.4-9.8-10.6-16.7
			c-0.7-4.1-0.8-8.2-1.3-12.3c-0.5-4.5-1.3-9-4.4-12.5c-2.1-2.4-4.8-4.4-7.6-6.9c0.3-1.1,0.8-2.7,1.3-4.2c0.1-0.3,0.7-0.7,1.1-0.8
			c3.6-0.8,6.9,0.3,10,2c6.6,3.6,10.7,9.3,12.8,16.4c1.1,3.8,2,7.6,3.3,11.3c1.4,3.7,3.8,6.7,7.9,7.8c4.4,1.1,8.8-1.1,10.4-5.4
			c0.3-0.9,0.6-1.9,0.8-2.9c0.3-1.1,0.9-1.9,2.1-1.8c1.2,0.1,2.2,1,2.1,2.2c-0.1,1.7-0.4,3.4-1,4.9c-2.9,7.2-10.3,11-17.8,8.8
			c-6.2-1.8-9.8-6.4-11.2-12.7c-0.9-4.1-1.8-8.2-2.8-12.3c-0.2-0.6-0.9-1.1-1.4-1.7c-0.2,0.1-0.3,0.2-0.5,0.3c0,1.7-0.2,3.3,0,5
			c0.4,3.3,0.7,6.6,1.5,9.9c1.8,7.3,4.9,13.9,12.2,17.3c6.3,3,12.7,3.1,18.6-1.4c0.6-0.4,1.5-0.4,2.3-0.6
			C149.7,77.5,150.2,78.5,149.9,79.2z"/>
		<path class="st0" d="M133.2,92.3c0,0.7-0.6,1.7-1.2,1.9c-0.9,0.5-2.1,0.6-3.2,0.6c-10.5-0.1-21.1-7.6-24.8-17.5
			c-1.9-5.1-2.6-10.4-2.8-15.8c-0.3-6-1.1-11.9-3.7-17.4c-0.3-0.6-0.4-1.3-0.8-1.7c-1.7-1.6-1-3,0.2-4.3c0.2-0.2,0.4-0.5,0.6-0.8
			c5.8,5,8.6,11.2,9.1,18.6c0.3,4.7,0.6,9.4,1.5,14.1c1.9,10.6,11,18.9,21.6,20.4c0.7,0.1,1.6,0.1,2.2,0.4
			C132.4,91,133.2,91.7,133.2,92.3z"/>
	</g>
	<polygon class="st0" points="95.4,27.3 90.7,38.1 82.7,34.5 87.4,23.8 	"/>
</g>
<text transform="matrix(1 0 0 1 177.2529 94.2228)" class="st0 st1 st2">BIKINGWITHC</text>
</svg>
