<?xml version="1.0" encoding="utf-8"?>
<!-- Generator: Adobe Illustrator 28.1.0, SVG Export Plug-In . SVG Version: 6.00 Build 0)  -->
<svg version="1.1" id="Layer_1" xmlns="http://www.w3.org/2000/svg" xmlns:xlink="http://www.w3.org/1999/xlink" x="0px" y="0px"
	 viewBox="0 0 150 150" style="enable-background:new 0 0 150 150;" xml:space="preserve">
<g>
	<path d="M49.5,25.3c6.8,0,14.4,3.2,18.9,8.1l-8.5,10.1c-2.7-3.6-6.7-6-10.1-6c-5.3,0-9.3,4.3-9.3,10.3s3.9,10.4,9.3,10.4
		c3.2,0,7.2-2,10.1-5.1l8.5,9.2c-4.9,5.5-12.7,8.9-19.5,8.9c-13.7,0-23.7-9.7-23.7-23.2C25.1,34.9,35.4,25.3,49.5,25.3z"/>
	<path d="M85.9,25.7h15.2l18.3,44.9h-15.9l-2.3-6.4H84.5l-2.3,6.4H67L85.9,25.7z M97.7,53.5L93,40.5l-4.7,13.1H97.7z"/>
	<path d="M42.5,76.3h15.2l18.3,44.9H60.2l-2.3-6.4H41.1l-2.3,6.4H23.5L42.5,76.3z M54.3,104.2l-4.7-13.1l-4.8,13.1H54.3z"/>
	<path d="M78.5,76.3h21.7c12.1,0,19.2,5.9,19.2,16c0,6.5-2.5,11.3-7.1,14.3l8.8,14.5h-16.8L99,109.5h-5.6v11.6H78.5V76.3z
		 M100.2,98.3c3.2,0,5.1-2,5.1-5.5c0-3.3-1.9-5.2-5.1-5.2h-6.8v10.7H100.2z"/>
</g>
<g>
	<polygon points="16.3,35.9 3,35.9 3,4.2 33.7,4.2 33.7,17.5 16.3,17.5 	"/>
</g>
<g>
	<polygon points="147,146.6 116.3,146.6 116.3,133.3 133.7,133.3 133.7,114.9 147,114.9 	"/>
</g>
</svg>
